<svg width="14" height="14" viewBox="0 0 14 14" fill="none" xmlns="http://www.w3.org/2000/svg">
<path d="M10.333 1.99996H12.9997C13.1765 1.99996 13.3461 2.0702 13.4711 2.19522C13.5961 2.32025 13.6663 2.48981 13.6663 2.66663V13.3333C13.6663 13.5101 13.5961 13.6797 13.4711 13.8047C13.3461 13.9297 13.1765 14 12.9997 14H0.999674C0.822863 14 0.653294 13.9297 0.52827 13.8047C0.403246 13.6797 0.333008 13.5101 0.333008 13.3333V2.66663C0.333008 2.48981 0.403246 2.32025 0.52827 2.19522C0.653294 2.0702 0.822863 1.99996 0.999674 1.99996H3.66634V0.666626H4.99967V1.99996H8.99967V0.666626H10.333V1.99996ZM8.99967 3.33329H4.99967V4.66663H3.66634V3.33329H1.66634V5.99996H12.333V3.33329H10.333V4.66663H8.99967V3.33329ZM12.333 7.33329H1.66634V12.6666H12.333V7.33329Z" fill="#4B5563"/>
</svg>
